<?xml version="1.0" standalone="no"?>
<!DOCTYPE svg PUBLIC "-//W3C//DTD SVG 20010904//EN"
 "http://www.w3.org/TR/2001/REC-SVG-20010904/DTD/svg10.dtd">
<svg version="1.0" xmlns="http://www.w3.org/2000/svg"
 width="981.000000pt" height="981.000000pt" viewBox="0 0 981.000000 981.000000"
 preserveAspectRatio="xMidYMid meet">
<metadata>
Created by potrace 1.14, written by Peter Selinger 2001-2017
</metadata>
<g transform="translate(0.000000,981.000000) scale(0.100000,-0.100000)"
fill="#000000" stroke="none">
<path d="M6456 9803 c-3 -3 -20 -7 -38 -8 -18 -2 -53 -6 -78 -10 -25 -4 -52
-8 -60 -9 -8 -2 -24 -5 -35 -9 -11 -3 -31 -8 -45 -11 -65 -11 -271 -85 -344
-123 -17 -9 -37 -18 -44 -19 -8 -1 -21 -9 -30 -17 -10 -8 -35 -24 -57 -36
-221 -119 -460 -346 -618 -589 -50 -75 -117 -203 -117 -220 0 -6 -6 -17 -12
-24 -7 -7 -21 -35 -31 -63 -23 -62 -86 -271 -92 -305 -35 -205 -44 -346 -31
-500 12 -142 18 -178 52 -315 14 -55 27 -107 29 -115 15 -61 139 -329 177
-385 4 -5 29 -41 54 -80 67 -100 96 -135 209 -249 111 -113 138 -136 210 -186
28 -19 52 -38 55 -41 3 -3 39 -26 80 -52 170 -105 407 -197 595 -232 11 -2 34
-6 50 -9 45 -10 102 -16 185 -22 41 -2 80 -5 85 -5 17 -2 238 11 270 15 53 7
109 17 130 23 11 3 29 7 40 9 26 3 182 49 220 65 17 7 36 13 43 15 24 5 247
117 250 126 2 4 8 8 14 8 14 0 185 119 239 167 107 93 319 325 319 348 0 4 14
25 31 46 17 21 27 39 22 39 -4 0 -3 4 4 8 34 21 187 365 207 465 3 12 14 65
26 117 29 132 35 191 35 375 0 180 -9 262 -43 413 -6 23 -8 42 -5 42 3 0 1 6
-5 13 -5 6 -15 32 -21 57 -7 25 -16 54 -21 65 -5 11 -21 52 -35 90 -25 67
-130 275 -145 285 -4 3 -13 16 -20 29 -41 78 -216 276 -348 395 -55 50 -275
196 -332 221 -25 11 -48 24 -52 30 -4 5 -8 6 -8 2 0 -5 -10 -1 -22 7 -12 9
-30 16 -40 16 -10 0 -18 3 -18 8 0 6 -37 21 -85 36 -5 1 -41 13 -80 25 -62 20
-98 29 -185 46 -14 3 -38 8 -55 12 -16 3 -41 8 -55 10 -47 6 -418 11 -424 6z"/>
<path d="M1363 5452 l-23 -3 0 -1312 0 -1312 2016 0 c1159 0 2018 -4 2021 -9
3 -5 6 -638 6 -1407 l0 -1399 1313 0 1314 0 0 2720 c0 1496 -3 2720 -7 2721
-24 2 -6622 3 -6640 1z"/>
</g>
</svg>
